<mxfile host="app.diagrams.net" modified="2022-03-03T19:56:23.889Z" agent="5.0 (Windows NT 10.0; Win64; x64) AppleWebKit/537.36 (KHTML, like Gecko) Chrome/98.0.4758.102 Safari/537.36" etag="AIcCPP9ifnWMtDjA0Oq9" version="16.6.5" type="github">
  <diagram id="Q7-ka3U2VtvC_zTOFb2D" name="Page-1">
    <mxGraphModel dx="1038" dy="579" grid="1" gridSize="10" guides="1" tooltips="1" connect="1" arrows="1" fold="1" page="1" pageScale="1" pageWidth="827" pageHeight="1169" math="0" shadow="0">
      <root>
        <mxCell id="0" />
        <mxCell id="1" parent="0" />
        <mxCell id="G6CsTYgNH17AaaIi-4ZI-30" value="" style="rounded=1;whiteSpace=wrap;html=1;fillColor=#CCFFFF;strokeColor=#56517e;" vertex="1" parent="1">
          <mxGeometry x="220" y="218.5" width="500" height="130" as="geometry" />
        </mxCell>
        <mxCell id="G6CsTYgNH17AaaIi-4ZI-10" value="" style="rounded=1;whiteSpace=wrap;html=1;fillColor=#f5f5f5;fontColor=#333333;strokeColor=#666666;" vertex="1" parent="1">
          <mxGeometry x="100" y="20" width="620" height="170" as="geometry" />
        </mxCell>
        <mxCell id="G6CsTYgNH17AaaIi-4ZI-14" style="edgeStyle=orthogonalEdgeStyle;rounded=0;orthogonalLoop=1;jettySize=auto;html=1;exitX=0.5;exitY=1;exitDx=0;exitDy=0;entryX=0.5;entryY=0;entryDx=0;entryDy=0;" edge="1" parent="1" source="G6CsTYgNH17AaaIi-4ZI-8" target="G6CsTYgNH17AaaIi-4ZI-9">
          <mxGeometry relative="1" as="geometry" />
        </mxCell>
        <mxCell id="G6CsTYgNH17AaaIi-4ZI-8" value="&lt;b&gt;Requests for application placement&lt;/b&gt;" style="ellipse;whiteSpace=wrap;html=1;fillColor=#cdeb8b;strokeColor=#36393d;" vertex="1" parent="1">
          <mxGeometry x="150" y="40" width="100" height="60" as="geometry" />
        </mxCell>
        <mxCell id="G6CsTYgNH17AaaIi-4ZI-16" style="edgeStyle=orthogonalEdgeStyle;rounded=0;orthogonalLoop=1;jettySize=auto;html=1;exitX=1;exitY=0.5;exitDx=0;exitDy=0;entryX=0;entryY=0.5;entryDx=0;entryDy=0;" edge="1" parent="1" source="G6CsTYgNH17AaaIi-4ZI-9" target="G6CsTYgNH17AaaIi-4ZI-11">
          <mxGeometry relative="1" as="geometry">
            <Array as="points">
              <mxPoint x="270" y="140" />
              <mxPoint x="270" y="70" />
            </Array>
          </mxGeometry>
        </mxCell>
        <mxCell id="G6CsTYgNH17AaaIi-4ZI-9" value="&lt;b&gt;Characteristics of Application&amp;nbsp;&lt;/b&gt;" style="shape=parallelogram;perimeter=parallelogramPerimeter;whiteSpace=wrap;html=1;fixedSize=1;fillColor=#ffff88;strokeColor=#36393d;" vertex="1" parent="1">
          <mxGeometry x="135" y="120" width="130" height="40" as="geometry" />
        </mxCell>
        <mxCell id="G6CsTYgNH17AaaIi-4ZI-19" style="edgeStyle=orthogonalEdgeStyle;rounded=0;orthogonalLoop=1;jettySize=auto;html=1;exitX=0.5;exitY=1;exitDx=0;exitDy=0;entryX=0.5;entryY=0;entryDx=0;entryDy=0;fontSize=11;" edge="1" parent="1" source="G6CsTYgNH17AaaIi-4ZI-11" target="G6CsTYgNH17AaaIi-4ZI-17">
          <mxGeometry relative="1" as="geometry" />
        </mxCell>
        <mxCell id="G6CsTYgNH17AaaIi-4ZI-11" value="&lt;b&gt;Edge Affinity Determination&lt;/b&gt;" style="shape=trapezoid;perimeter=trapezoidPerimeter;whiteSpace=wrap;html=1;fixedSize=1;fillColor=#ffcccc;strokeColor=#36393d;" vertex="1" parent="1">
          <mxGeometry x="278" y="50" width="136" height="40" as="geometry" />
        </mxCell>
        <mxCell id="G6CsTYgNH17AaaIi-4ZI-31" style="edgeStyle=orthogonalEdgeStyle;rounded=0;orthogonalLoop=1;jettySize=auto;html=1;exitX=0.5;exitY=1;exitDx=0;exitDy=0;entryX=0.5;entryY=0;entryDx=0;entryDy=0;fontSize=11;" edge="1" parent="1" source="G6CsTYgNH17AaaIi-4ZI-17" target="G6CsTYgNH17AaaIi-4ZI-29">
          <mxGeometry relative="1" as="geometry" />
        </mxCell>
        <mxCell id="G6CsTYgNH17AaaIi-4ZI-33" style="edgeStyle=orthogonalEdgeStyle;rounded=0;orthogonalLoop=1;jettySize=auto;html=1;exitX=1;exitY=0.5;exitDx=0;exitDy=0;entryX=0;entryY=0.5;entryDx=0;entryDy=0;fontSize=11;" edge="1" parent="1" source="G6CsTYgNH17AaaIi-4ZI-17" target="G6CsTYgNH17AaaIi-4ZI-23">
          <mxGeometry relative="1" as="geometry" />
        </mxCell>
        <mxCell id="G6CsTYgNH17AaaIi-4ZI-17" value="&lt;b&gt;&lt;font style=&quot;font-size: 11px&quot; color=&quot;#000000&quot;&gt;App Utilization &lt;br&gt;Limit breach&lt;/font&gt;&lt;/b&gt;" style="rhombus;whiteSpace=wrap;html=1;fillColor=#f9f7ed;strokeColor=#36393d;" vertex="1" parent="1">
          <mxGeometry x="291" y="102.5" width="110" height="75" as="geometry" />
        </mxCell>
        <mxCell id="G6CsTYgNH17AaaIi-4ZI-34" style="edgeStyle=orthogonalEdgeStyle;rounded=0;orthogonalLoop=1;jettySize=auto;html=1;exitX=0.5;exitY=0;exitDx=0;exitDy=0;fontSize=11;" edge="1" parent="1" source="G6CsTYgNH17AaaIi-4ZI-23" target="G6CsTYgNH17AaaIi-4ZI-26">
          <mxGeometry relative="1" as="geometry" />
        </mxCell>
        <mxCell id="G6CsTYgNH17AaaIi-4ZI-23" value="&lt;b&gt;Classification&lt;/b&gt;" style="rounded=0;whiteSpace=wrap;html=1;fontSize=11;fillColor=#b0e3e6;strokeColor=#0e8088;" vertex="1" parent="1">
          <mxGeometry x="430" y="126" width="120" height="28" as="geometry" />
        </mxCell>
        <mxCell id="G6CsTYgNH17AaaIi-4ZI-25" value="&lt;b&gt;Upgrading Allocation report&lt;/b&gt;" style="rounded=0;whiteSpace=wrap;html=1;fontSize=11;fillColor=#fad7ac;strokeColor=#b46504;" vertex="1" parent="1">
          <mxGeometry x="580" y="50" width="110" height="110" as="geometry" />
        </mxCell>
        <mxCell id="G6CsTYgNH17AaaIi-4ZI-45" style="edgeStyle=orthogonalEdgeStyle;rounded=0;orthogonalLoop=1;jettySize=auto;html=1;exitX=0.5;exitY=0;exitDx=0;exitDy=0;entryX=0;entryY=0.5;entryDx=0;entryDy=0;fontSize=11;" edge="1" parent="1" source="G6CsTYgNH17AaaIi-4ZI-26" target="G6CsTYgNH17AaaIi-4ZI-29">
          <mxGeometry relative="1" as="geometry">
            <Array as="points">
              <mxPoint x="490" y="10" />
              <mxPoint x="85" y="10" />
              <mxPoint x="85" y="283" />
            </Array>
          </mxGeometry>
        </mxCell>
        <mxCell id="G6CsTYgNH17AaaIi-4ZI-26" value="&lt;b&gt;Selection&lt;/b&gt;" style="rounded=0;whiteSpace=wrap;html=1;fontSize=11;fillColor=#b0e3e6;strokeColor=#0e8088;" vertex="1" parent="1">
          <mxGeometry x="430" y="50" width="120" height="28" as="geometry" />
        </mxCell>
        <mxCell id="G6CsTYgNH17AaaIi-4ZI-27" value="&lt;b&gt;&lt;u&gt;Fog Gateway&lt;/u&gt;&lt;/b&gt;" style="text;html=1;strokeColor=none;fillColor=none;align=center;verticalAlign=middle;whiteSpace=wrap;rounded=0;fontSize=11;" vertex="1" parent="1">
          <mxGeometry x="90" y="20" width="100" height="30" as="geometry" />
        </mxCell>
        <mxCell id="G6CsTYgNH17AaaIi-4ZI-44" style="edgeStyle=orthogonalEdgeStyle;rounded=0;orthogonalLoop=1;jettySize=auto;html=1;exitX=1;exitY=0.5;exitDx=0;exitDy=0;fontSize=11;" edge="1" parent="1" source="G6CsTYgNH17AaaIi-4ZI-29" target="G6CsTYgNH17AaaIi-4ZI-39">
          <mxGeometry relative="1" as="geometry" />
        </mxCell>
        <mxCell id="G6CsTYgNH17AaaIi-4ZI-29" value="&lt;b&gt;Implementation Transfer&lt;/b&gt;" style="ellipse;whiteSpace=wrap;html=1;aspect=fixed;fontSize=11;fillColor=#E6E6E6;strokeColor=#6c8ebf;gradientColor=#FF9999;" vertex="1" parent="1">
          <mxGeometry x="105" y="240" width="85" height="85" as="geometry" />
        </mxCell>
        <mxCell id="G6CsTYgNH17AaaIi-4ZI-35" value="&lt;b&gt;&lt;i&gt;YES&lt;/i&gt;&lt;/b&gt;" style="text;html=1;strokeColor=none;fillColor=none;align=center;verticalAlign=middle;whiteSpace=wrap;rounded=0;fontSize=11;" vertex="1" parent="1">
          <mxGeometry x="380" y="140" width="60" height="30" as="geometry" />
        </mxCell>
        <mxCell id="G6CsTYgNH17AaaIi-4ZI-38" value="&lt;b&gt;&lt;i&gt;NO&lt;/i&gt;&lt;/b&gt;" style="text;html=1;align=center;verticalAlign=middle;resizable=0;points=[];autosize=1;strokeColor=none;fillColor=none;fontSize=11;" vertex="1" parent="1">
          <mxGeometry x="150" y="217.5" width="30" height="20" as="geometry" />
        </mxCell>
        <mxCell id="G6CsTYgNH17AaaIi-4ZI-46" style="edgeStyle=orthogonalEdgeStyle;rounded=0;orthogonalLoop=1;jettySize=auto;html=1;exitX=1;exitY=0.5;exitDx=0;exitDy=0;entryX=0;entryY=0.5;entryDx=0;entryDy=0;fontSize=11;" edge="1" parent="1" source="G6CsTYgNH17AaaIi-4ZI-39" target="G6CsTYgNH17AaaIi-4ZI-40">
          <mxGeometry relative="1" as="geometry" />
        </mxCell>
        <mxCell id="G6CsTYgNH17AaaIi-4ZI-39" value="&lt;b&gt;Receive references&lt;br/&gt;of applications&lt;/b&gt;" style="ellipse;whiteSpace=wrap;html=1;fontSize=11;fillColor=#cdeb8b;strokeColor=#36393d;" vertex="1" parent="1">
          <mxGeometry x="240" y="249" width="90" height="67" as="geometry" />
        </mxCell>
        <mxCell id="G6CsTYgNH17AaaIi-4ZI-47" style="edgeStyle=orthogonalEdgeStyle;rounded=0;orthogonalLoop=1;jettySize=auto;html=1;exitX=1;exitY=0.5;exitDx=0;exitDy=0;entryX=0;entryY=0.5;entryDx=0;entryDy=0;fontSize=11;" edge="1" parent="1" source="G6CsTYgNH17AaaIi-4ZI-40" target="G6CsTYgNH17AaaIi-4ZI-41">
          <mxGeometry relative="1" as="geometry" />
        </mxCell>
        <mxCell id="G6CsTYgNH17AaaIi-4ZI-40" value="&lt;b&gt;Meta-data of Application&amp;nbsp;&lt;/b&gt;" style="shape=parallelogram;perimeter=parallelogramPerimeter;whiteSpace=wrap;html=1;fixedSize=1;fillColor=#ffff88;strokeColor=#36393d;" vertex="1" parent="1">
          <mxGeometry x="345" y="263.5" width="130" height="40" as="geometry" />
        </mxCell>
        <mxCell id="G6CsTYgNH17AaaIi-4ZI-48" style="edgeStyle=orthogonalEdgeStyle;rounded=0;orthogonalLoop=1;jettySize=auto;html=1;exitX=1;exitY=0.5;exitDx=0;exitDy=0;entryX=0;entryY=0.5;entryDx=0;entryDy=0;fontSize=11;" edge="1" parent="1" source="G6CsTYgNH17AaaIi-4ZI-41" target="G6CsTYgNH17AaaIi-4ZI-43">
          <mxGeometry relative="1" as="geometry" />
        </mxCell>
        <mxCell id="G6CsTYgNH17AaaIi-4ZI-41" value="&lt;b&gt;Identify time-optimized&lt;br/&gt;placement map&lt;/b&gt;" style="rounded=0;whiteSpace=wrap;html=1;fontSize=11;fillColor=#ffcccc;strokeColor=#36393d;" vertex="1" parent="1">
          <mxGeometry x="490" y="263" width="120" height="40.5" as="geometry" />
        </mxCell>
        <mxCell id="G6CsTYgNH17AaaIi-4ZI-49" style="edgeStyle=orthogonalEdgeStyle;rounded=0;orthogonalLoop=1;jettySize=auto;html=1;exitX=0.5;exitY=0;exitDx=0;exitDy=0;entryX=0.75;entryY=0;entryDx=0;entryDy=0;fontSize=11;" edge="1" parent="1" source="G6CsTYgNH17AaaIi-4ZI-43" target="G6CsTYgNH17AaaIi-4ZI-26">
          <mxGeometry relative="1" as="geometry">
            <Array as="points">
              <mxPoint x="750" y="243" />
              <mxPoint x="750" y="10" />
              <mxPoint x="520" y="10" />
            </Array>
          </mxGeometry>
        </mxCell>
        <mxCell id="G6CsTYgNH17AaaIi-4ZI-51" style="edgeStyle=orthogonalEdgeStyle;rounded=0;orthogonalLoop=1;jettySize=auto;html=1;exitX=0.5;exitY=0;exitDx=0;exitDy=0;entryX=0.871;entryY=0.824;entryDx=0;entryDy=0;entryPerimeter=0;fontSize=11;" edge="1" parent="1" source="G6CsTYgNH17AaaIi-4ZI-43" target="G6CsTYgNH17AaaIi-4ZI-10">
          <mxGeometry relative="1" as="geometry" />
        </mxCell>
        <mxCell id="G6CsTYgNH17AaaIi-4ZI-43" value="&lt;b&gt;Successful&amp;nbsp;&lt;br&gt;Allocation&lt;/b&gt;" style="rhombus;whiteSpace=wrap;html=1;fontSize=11;fillColor=#fad7ac;strokeColor=#b46504;" vertex="1" parent="1">
          <mxGeometry x="630" y="243" width="80" height="80" as="geometry" />
        </mxCell>
        <mxCell id="G6CsTYgNH17AaaIi-4ZI-50" value="&lt;b&gt;&lt;i&gt;NO&lt;/i&gt;&lt;/b&gt;" style="text;html=1;strokeColor=none;fillColor=none;align=center;verticalAlign=middle;whiteSpace=wrap;rounded=0;fontSize=11;" vertex="1" parent="1">
          <mxGeometry x="750" y="110" width="30" height="30" as="geometry" />
        </mxCell>
        <mxCell id="G6CsTYgNH17AaaIi-4ZI-52" value="&lt;b&gt;&lt;i&gt;YES&lt;/i&gt;&lt;/b&gt;" style="text;html=1;align=center;verticalAlign=middle;resizable=0;points=[];autosize=1;strokeColor=none;fillColor=none;fontSize=11;" vertex="1" parent="1">
          <mxGeometry x="600" y="198.5" width="40" height="20" as="geometry" />
        </mxCell>
        <mxCell id="G6CsTYgNH17AaaIi-4ZI-53" value="&lt;b&gt;&lt;u&gt;Fog Resource Manager&lt;/u&gt;&lt;/b&gt;" style="text;html=1;strokeColor=none;fillColor=none;align=center;verticalAlign=middle;whiteSpace=wrap;rounded=0;fontSize=11;" vertex="1" parent="1">
          <mxGeometry x="220" y="219" width="140" height="30" as="geometry" />
        </mxCell>
        <mxCell id="G6CsTYgNH17AaaIi-4ZI-54" value="" style="shape=image;verticalLabelPosition=bottom;labelBackgroundColor=default;verticalAlign=top;aspect=fixed;imageAspect=0;image=https://upload.wikimedia.org/wikipedia/commons/thumb/b/b0/Copyright.svg/220px-Copyright.svg.png;" vertex="1" parent="1">
          <mxGeometry x="570" y="360" width="10" height="10" as="geometry" />
        </mxCell>
        <mxCell id="G6CsTYgNH17AaaIi-4ZI-56" value="&lt;i&gt;&lt;b&gt;&lt;font style=&quot;font-size: 9px&quot;&gt;19BCT0155, 19BCT0121, 19BCT0119&lt;/font&gt;&lt;/b&gt;&lt;/i&gt;" style="text;html=1;strokeColor=none;fillColor=none;align=center;verticalAlign=middle;whiteSpace=wrap;rounded=0;fontSize=11;fontColor=#000000;" vertex="1" parent="1">
          <mxGeometry x="560" y="350" width="200" height="30" as="geometry" />
        </mxCell>
      </root>
    </mxGraphModel>
  </diagram>
</mxfile>
